# xmcd
#
# Track frame offsets:
#	150
#	20672
#	34215
#	49777
#	72820
#	93155
#	113360
#	128942
#	151087
#	168040
#	183475
#	201305
#
# Disc length: 3003 seconds
#
# Revision: 0
# Processed by: cddbd v1.4PL0 Copyright (c) Steve Scherf et al.
# Submitted via: dBpowerAMP V4.0
#
DISCID=940bb90c
DTITLE=Don Neilson - Or is it just me
DYEAR=1900
DGENRE=Country
TTITLE0=High and Outside
TTITLE1=Secret Weapon
TTITLE2=Break Me
TTITLE3=Living Proof (Love Saves)
TTITLE4=Home Of The Brave
TTITLE5=In My Day
TTITLE6=Sadies Kitchen
TTITLE7=Safer Harbours
TTITLE8=Beeswax (K.Y.B.T.Y)
TTITLE9=You Don't Look
TTITLE10=Pass The Torch
TTITLE11=Grace Of God
EXTD=
EXTT0=
EXTT1=
EXTT2=
EXTT3=
EXTT4=
EXTT5=
EXTT6=
EXTT7=
EXTT8=
EXTT9=
EXTT10=
EXTT11=
PLAYORDER=
